<svg width="14" height="16" viewBox="0 0 14 16" fill="none" xmlns="http://www.w3.org/2000/svg">
<g clip-path="url(#clip0_143_703)">
<path d="M7.00312 4.40635C5.01562 4.40635 3.41249 6.00947 3.41249 7.99697C3.41249 9.98447 5.01562 11.5876 7.00312 11.5876C8.99062 11.5876 10.5937 9.98447 10.5937 7.99697C10.5937 6.00947 8.99062 4.40635 7.00312 4.40635ZM7.00312 10.3313C5.71874 10.3313 4.66874 9.28447 4.66874 7.99697C4.66874 6.70947 5.71562 5.6626 7.00312 5.6626C8.29062 5.6626 9.33749 6.70947 9.33749 7.99697C9.33749 9.28447 8.28749 10.3313 7.00312 10.3313ZM11.5781 4.25947C11.5781 4.7251 11.2031 5.09697 10.7406 5.09697C10.275 5.09697 9.90312 4.72197 9.90312 4.25947C9.90312 3.79697 10.2781 3.42197 10.7406 3.42197C11.2031 3.42197 11.5781 3.79697 11.5781 4.25947ZM13.9562 5.10947C13.9031 3.9876 13.6469 2.99385 12.825 2.1751C12.0062 1.35635 11.0125 1.1001 9.89062 1.04385C8.73437 0.978223 5.26874 0.978223 4.11249 1.04385C2.99374 1.09697 1.99999 1.35322 1.17812 2.17197C0.356244 2.99072 0.103119 3.98447 0.0468689 5.10635C-0.0187561 6.2626 -0.0187561 9.72822 0.0468689 10.8845C0.0999939 12.0063 0.356244 13.0001 1.17812 13.8188C1.99999 14.6376 2.99062 14.8938 4.11249 14.9501C5.26874 15.0157 8.73437 15.0157 9.89062 14.9501C11.0125 14.897 12.0062 14.6407 12.825 13.8188C13.6437 13.0001 13.9 12.0063 13.9562 10.8845C14.0219 9.72822 14.0219 6.26572 13.9562 5.10947ZM12.4625 12.1251C12.2187 12.7376 11.7469 13.2095 11.1312 13.4563C10.2094 13.822 8.02187 13.7376 7.00312 13.7376C5.98437 13.7376 3.79374 13.8188 2.87499 13.4563C2.26249 13.2126 1.79062 12.7407 1.54374 12.1251C1.17812 11.2032 1.26249 9.01572 1.26249 7.99697C1.26249 6.97822 1.18124 4.7876 1.54374 3.86885C1.78749 3.25635 2.25937 2.78447 2.87499 2.5376C3.79687 2.17197 5.98437 2.25635 7.00312 2.25635C8.02187 2.25635 10.2125 2.1751 11.1312 2.5376C11.7437 2.78135 12.2156 3.25322 12.4625 3.86885C12.8281 4.79072 12.7437 6.97822 12.7437 7.99697C12.7437 9.01572 12.8281 11.2063 12.4625 12.1251Z" fill="#9CA3AF"/>
</g>
<defs>
<clipPath id="clip0_143_703">
<path d="M0 0H14V16H0V0Z" fill="white"/>
</clipPath>
</defs>
</svg>
