<svg width="15" height="16" viewBox="0 0 15 16" fill="none" xmlns="http://www.w3.org/2000/svg">
<g clip-path="url(#clip0_231_1481)">
<path d="M4.33437 0.553125L4.10938 1H1.10938C0.55625 1 0.109375 1.44687 0.109375 2C0.109375 2.55312 0.55625 3 1.10938 3H13.1094C13.6625 3 14.1094 2.55312 14.1094 2C14.1094 1.44687 13.6625 1 13.1094 1H10.1094L9.88437 0.553125C9.71562 0.2125 9.36875 0 8.99063 0H5.22813C4.85 0 4.50312 0.2125 4.33437 0.553125ZM13.1094 4H1.10938L1.77188 14.5938C1.82187 15.3844 2.47813 16 3.26875 16H10.95C11.7406 16 12.3969 15.3844 12.4469 14.5938L13.1094 4Z" fill="#374151"/>
</g>
<defs>
<clipPath id="clip0_231_1481">
<path d="M0.109375 0H14.1094V16H0.109375V0Z" fill="white"/>
</clipPath>
</defs>
</svg>
