<svg width="17" height="16" viewBox="0 0 17 16" fill="none" xmlns="http://www.w3.org/2000/svg">
<g clip-path="url(#clip0_143_295)">
<path d="M11.375 8C11.375 8.69375 11.3375 9.3625 11.2719 10H5.47813C5.40938 9.3625 5.375 8.69375 5.375 8C5.375 7.30625 5.4125 6.6375 5.47813 6H11.2719C11.3406 6.6375 11.375 7.30625 11.375 8ZM12.275 6H16.1219C16.2875 6.64062 16.375 7.30937 16.375 8C16.375 8.69063 16.2875 9.35938 16.1219 10H12.275C12.3406 9.35625 12.375 8.6875 12.375 8C12.375 7.3125 12.3406 6.64375 12.275 6ZM15.7937 5H12.1469C11.8344 3.00312 11.2156 1.33125 10.4187 0.2625C12.8656 0.909375 14.8562 2.68438 15.7906 5H15.7937ZM11.1344 5H5.61562C5.80625 3.8625 6.1 2.85625 6.45937 2.04063C6.7875 1.30313 7.15312 0.76875 7.50625 0.43125C7.85625 0.1 8.14687 0 8.375 0C8.60312 0 8.89375 0.1 9.24375 0.43125C9.59687 0.76875 9.9625 1.30313 10.2906 2.04063C10.6531 2.85313 10.9437 3.85938 11.1344 5ZM4.60313 5H0.95625C1.89375 2.68438 3.88125 0.909375 6.33125 0.2625C5.53438 1.33125 4.91563 3.00312 4.60313 5ZM0.628125 6H4.475C4.40937 6.64375 4.375 7.3125 4.375 8C4.375 8.6875 4.40937 9.35625 4.475 10H0.628125C0.4625 9.35938 0.375 8.69063 0.375 8C0.375 7.30937 0.4625 6.64062 0.628125 6ZM6.45937 13.9563C6.09687 13.1438 5.80625 12.1375 5.61562 11H11.1344C10.9437 12.1375 10.65 13.1438 10.2906 13.9563C9.9625 14.6938 9.59687 15.2281 9.24375 15.5656C8.89375 15.9 8.60312 16 8.375 16C8.14687 16 7.85625 15.9 7.50625 15.5688C7.15312 15.2313 6.7875 14.6969 6.45937 13.9594V13.9563ZM4.60313 11C4.91563 12.9969 5.53438 14.6687 6.33125 15.7375C3.88125 15.0906 1.89375 13.3156 0.95625 11H4.60313ZM15.7937 11C14.8562 13.3156 12.8687 15.0906 10.4219 15.7375C11.2188 14.6687 11.8344 12.9969 12.15 11H15.7937Z" fill="#4B5563"/>
</g>
<defs>
<clipPath id="clip0_143_295">
<path d="M0.375 0H16.375V16H0.375V0Z" fill="white"/>
</clipPath>
</defs>
</svg>
